# xmcd
#
# Track frame offsets:
#	150
#	15708
#	27924
#	45935
#	59009
#	74028
#	88201
#	107076
#	121684
#	140449
#	159763
#	169265
#	184357
#	198724
#	211745
#
# Disc length: 3007 seconds
#
# Revision: 2
# Processed by: cddbd v1.5.2PL0 Copyright (c) Steve Scherf et al.
# Submitted via: EasyCDDAExtractor 10.2.0.1
#
DISCID=d50bbd0f
DTITLE=Anne Murray - Country Croonin' [cd2]
DYEAR=2002
DGENRE=Country
TTITLE0=Make The World Go Away
TTITLE1=Anytime
TTITLE2=You Don't Know Me
TTITLE3=Bye, Bye Love
TTITLE4=Vaya Con Dios
TTITLE5=Take These Chains From My Heart
TTITLE6=For The Good Times
TTITLE7=Sea Of Heart Break
TTITLE8=She'll Have to Go
TTITLE9=I'm Confessin' (That I Love You)/I'm Fool A To Care
TTITLE10=Blue, Blue Day
TTITLE11=That's The Way Love Goes
TTITLE12=I Fall To Pieces
TTITLE13=All I Have To Dream
TTITLE14=Tennessee Waltz
EXTD=
EXTT0=
EXTT1=
EXTT2=
EXTT3=
EXTT4=
EXTT5=
EXTT6=
EXTT7=
EXTT8=
EXTT9=
EXTT10=
EXTT11=
EXTT12=
EXTT13=
EXTT14=
PLAYORDER=
